<?xml version="1.0" encoding="UTF-8" standalone="no"?>
<!-- Created with Inkscape (http://www.inkscape.org/) -->

<svg
   xmlns:dc="http://purl.org/dc/elements/1.1/"
   xmlns:cc="http://creativecommons.org/ns#"
   xmlns:rdf="http://www.w3.org/1999/02/22-rdf-syntax-ns#"
   xmlns:svg="http://www.w3.org/2000/svg"
   xmlns="http://www.w3.org/2000/svg"
   xmlns:sodipodi="http://sodipodi.sourceforge.net/DTD/sodipodi-0.dtd"
   xmlns:inkscape="http://www.inkscape.org/namespaces/inkscape"
   width="32px"
   height="32px"
   id="svg2985"
   version="1.1"
   inkscape:version="0.48.4 r9939"
   sodipodi:docname="script-icon.svg"
   inkscape:export-filename="/home/sreiter/projects/ProMesh/trunk/images/tool_scripts.png"
   inkscape:export-xdpi="90"
   inkscape:export-ydpi="90">
  <defs
     id="defs2987" />
  <sodipodi:namedview
     id="base"
     pagecolor="#ffffff"
     bordercolor="#666666"
     borderopacity="1.0"
     inkscape:pageopacity="0.0"
     inkscape:pageshadow="2"
     inkscape:zoom="11.197802"
     inkscape:cx="1.4882235"
     inkscape:cy="16"
     inkscape:current-layer="layer1"
     showgrid="true"
     inkscape:grid-bbox="true"
     inkscape:document-units="px"
     inkscape:window-width="1600"
     inkscape:window-height="845"
     inkscape:window-x="0"
     inkscape:window-y="27"
     inkscape:window-maximized="1" />
  <metadata
     id="metadata2990">
    <rdf:RDF>
      <cc:Work
         rdf:about="">
        <dc:format>image/svg+xml</dc:format>
        <dc:type
           rdf:resource="http://purl.org/dc/dcmitype/StillImage" />
        <dc:title></dc:title>
      </cc:Work>
    </rdf:RDF>
  </metadata>
  <g
     id="layer1"
     inkscape:label="Layer 1"
     inkscape:groupmode="layer">
    <path
       style="fill:#e0e0e0;stroke:#3f3f3f;stroke-width:2;stroke-linecap:butt;stroke-linejoin:round;stroke-opacity:1;stroke-miterlimit:4;stroke-dasharray:none;fill-opacity:1"
       d="M 4.9116782,27.624141 25.272817,27.713444 27.594701,4.6732085 7.3228657,4.5839053 z"
       id="path3823"
       inkscape:connector-curvature="0"
       sodipodi:nodetypes="ccccc" />
    <path
       style="fill:none;stroke:#000000;stroke-width:2;stroke-linecap:butt;stroke-linejoin:miter;stroke-miterlimit:4;stroke-opacity:1;stroke-dasharray:none"
       d="m 9.5331209,9.4955833 1.1609421,-0.6251225 0.535819,0.2679097 1.250246,0.6251218 1.428852,-0.267909 c 1.696761,-0.4465161 2.143278,-0.6251226 2.143278,-0.6251226 l 2.053974,0.8037296 c 0,0 1.518155,-1.0716393 2.500491,-0.5358198 0.982335,0.5358198 1.160942,0.5358198 1.160942,0.5358198 0,0 0.267909,0.5358187 1.071639,0.178606 0.803729,-0.357213 1.786064,-0.446516 1.786064,-0.446516"
       id="path2995"
       inkscape:connector-curvature="0"
       sodipodi:nodetypes="cccccccscsc" />
    <path
       style="fill:none;stroke:#000000;stroke-width:2;stroke-linecap:butt;stroke-linejoin:miter;stroke-miterlimit:4;stroke-opacity:1;stroke-dasharray:none"
       d="m 8.8856723,13.944 1.1609417,-0.625122 0.535819,0.26791 1.250246,0.625121 1.428852,-0.267909 c 1.696761,-0.446516 2.143278,-0.625122 2.143278,-0.625122 l 2.053974,0.803729 c 0,0 1.518155,-1.071639 2.500491,-0.535819 0.982335,0.535819 1.160942,0.535819 1.160942,0.535819 0,0 0.267909,0.535819 1.071639,0.178606 0.803729,-0.357213 1.786064,-0.446516 1.786064,-0.446516"
       id="path2995-4"
       inkscape:connector-curvature="0"
       sodipodi:nodetypes="cccccccscsc" />
    <path
       style="fill:none;stroke:#000000;stroke-width:2;stroke-linecap:butt;stroke-linejoin:miter;stroke-miterlimit:4;stroke-opacity:1;stroke-dasharray:none"
       d="m 8.1712467,18.587769 1.1609418,-0.625122 0.5358188,0.26791 1.2502457,0.625121 1.428852,-0.267909 c 1.696761,-0.446516 2.143278,-0.625122 2.143278,-0.625122 l 2.053974,0.803729 c 0,0 1.518155,-1.071639 2.500491,-0.535819 0.982335,0.535819 1.160942,0.535819 1.160942,0.535819 0,0 0.267909,0.535819 1.071639,0.178606 0.803729,-0.357213 1.786064,-0.446516 1.786064,-0.446516"
       id="path2995-3"
       inkscape:connector-curvature="0"
       sodipodi:nodetypes="cccccccscsc" />
    <path
       style="fill:none;stroke:#000000;stroke-width:2;stroke-linecap:butt;stroke-linejoin:miter;stroke-miterlimit:4;stroke-opacity:1;stroke-dasharray:none"
       d="m 7.9033366,23.052931 1.160942,-0.625122 0.535819,0.26791 1.2502464,0.625121 1.428852,-0.267909 c 1.696761,-0.446516 2.143278,-0.625122 2.143278,-0.625122 l 2.053974,0.803729 c 0,0 1.518155,-1.071639 2.500491,-0.535819 0.982335,0.535819 1.160942,0.535819 1.160942,0.535819 0,0 0.267909,0.535819 1.071639,0.178606 0.803729,-0.357213 1.786064,-0.446516 1.786064,-0.446516"
       id="path2995-6"
       inkscape:connector-curvature="0"
       sodipodi:nodetypes="cccccccscsc" />
  </g>
</svg>
